<svg t="1696921623744" class="icon" viewBox="0 0 1024 1024" version="1.1" xmlns="http://www.w3.org/2000/svg" p-id="3221" width="200" height="200"><path d="M864 128a32 32 0 0 1 32 32v32a32 32 0 0 1-28.256 31.776L864 224H160a32 32 0 0 1-32-32V160a32 32 0 0 1 32-32h704z m32 704v32a32 32 0 0 1-32 32H160a32 32 0 0 1-32-32v-32a32 32 0 0 1 32-32h704a32 32 0 0 1 32 32z m0-336v32a32 32 0 0 1-32 32H512a32 32 0 0 1-32-32v-32a32 32 0 0 1 32-32h352a32 32 0 0 1 32 32zM148.48 538.048l136.928 97.824a32 32 0 0 0 50.592-26.048v-195.648a32 32 0 0 0-50.592-26.048l-136.96 97.824a32 32 0 0 0 0 52.096z" fill="#333333" p-id="3222"></path></svg>